<svg version="1.1" xmlns="http://www.w3.org/2000/svg" viewBox="-267.2639991760254 -1064.960009765625 7456.837107086181 2312.194741821289"><desc>Created with Snap</desc><defs></defs><g><g><g transform="matrix(1.024,0,0,-1.024,0,0)"><g transform="matrix(1,0,0,1,0,0)"><path d="M340 0L60 0L60 70L158 70L158 628L60 628L60 698L340 698L340 628L242 628L242 70L340 70L340 0Z" fill="#210070" style=""></path></g><g transform="matrix(1,0,0,1,400,0)"><path d="M165 0L85 0L85 516L165 516L165 432L169 432Q188 476 222 502Q257 528 315 528Q395 528 441 476Q488 425 488 331L488 0L408 0L408 317Q408 456 291 456Q267 456 244 450Q222 444 204 432Q186 420 175 401Q165 383 165 358L165 0Z" fill="#210070" style=""></path></g><g transform="matrix(1,0,0,1,968,0)"><path d="M415 0L415 84L411 84Q364 -12 260 -12Q212 -12 173 7Q134 26 106 61Q79 96 64 146Q50 196 50 258Q50 320 64 370Q79 420 106 455Q134 490 173 509Q212 528 260 528Q314 528 352 504Q391 481 411 432L415 432L415 740L495 740L495 0L415 0ZM282 60Q309 60 333 67Q358 74 376 87Q394 101 404 120Q415 140 415 165L415 357Q415 378 404 396Q394 415 376 428Q358 441 333 448Q309 456 282 456Q214 456 175 413Q136 371 136 302L136 214Q136 145 175 102Q214 60 282 60Z" fill="#210070" style=""></path></g><g transform="matrix(1,0,0,1,1548,0)"><path d="M125 637Q99 637 87 649Q76 662 76 682L76 695Q76 715 87 727Q99 740 125 740Q151 740 162 727Q174 715 174 695L174 682Q174 662 162 649Q151 637 125 637ZM85 0L85 516L165 516L165 0L85 0Z" fill="#210070" style=""></path></g><g transform="matrix(1,0,0,1,1798,0)"><g transform="matrix(1.4026,0,0,1.4026,-200.4723,751.2923)"><g transform="matrix(1,0,0,-1,0,0)">
<g>
	<path d="M545.7,238.2c-1.9,0-3.8,0.3-5.6,1c-11.2-17.1-25.1-32.1-41.4-44.4c-30.6-23.2-67.9-35.7-106.3-35.6
		c-97.3,0-176.5,79.2-176.5,176.5c0,10.3,0.9,20.7,2.7,30.9c1.6,9,10.1,15,19.1,13.4c9-1.6,15-10.1,13.4-19.1
		c-1.5-8.3-2.2-16.7-2.2-25.1c0-79.1,64.4-143.5,143.5-143.5c62.1,0,118,41,136.8,100v215.5c0,9.1,7.4,16.5,16.5,16.5
		s16.5-7.4,16.5-16.5v-253C562.2,245.6,554.8,238.2,545.7,238.2z" fill="#210070" style=""></path>
	<path d="M513.4,436.4c-1-0.4-2.1-0.7-3.2-0.9h0l-61-11c-9-1.6-17.6,4.3-19.2,13.3c-1.6,9,4.3,17.6,13.3,19.2l19.8,3.6
		c-34.9,19.7-76.4,24.1-114.5,11.9c-8.6-3-18,1.5-21.1,10c-3,8.6,1.5,18,10,21.1c0.3,0.1,0.7,0.2,1,0.3
		c44.6,14.2,93,10.1,134.6-11.2l-5.2,12.9c-3.4,8.5,0.7,18.1,9.2,21.5s18.1-0.7,21.5-9.2l24-60C526,449.4,521.9,439.8,513.4,436.4z" fill="#210070" style=""></path>
	<path d="M372.4,348.8c0,8.3,6.8,15,15,15c5.7,0,11-3.3,13.5-8.5h56.5c3.6,0,6.5-2.9,6.5-6.5s-2.9-6.5-6.5-6.5h-56.5
		c-1.8-3.7-5-6.5-8.9-7.8l-13.1-94.6c-0.5-3.6-3.8-6-7.3-5.5c-3.6,0.5-6,3.8-5.6,7.3l13.1,94.6C374.9,339,372.4,343.7,372.4,348.8z" fill="#210070" style=""></path>
	<ellipse cx="241.2" cy="426.5" rx="66.9" ry="29.2" fill="#210070" style=""></ellipse>
	<path d="M307.7,441.7l-3.8,3.3l-1.5,1.3l-0.1,0.1c-10.6,10-33.8,17-60.7,17c-26,0-48.6-6.5-59.6-16l-2.7-2.1l-4.5-3.5l0.1,12.8v2.5
		c1.6,15.5,30.9,27.9,66.8,27.9c36.6,0,66.4-12.9,66.9-28.8V456l-0.1-2L307.7,441.7z" fill="#210070" style=""></path>
	<path d="M307.7,471.3l-3.8,3.3l-1.5,1.2l-0.1,0.1c-10.6,10-33.8,17-60.7,17c-26,0-48.6-6.5-59.6-16l-2.7-2.1l-4.5-3.5l0.1,12.8v2.5
		c1.6,15.5,30.9,27.9,66.8,27.9c36.6,0,66.4-12.9,66.9-28.8v-0.1l-0.1-2L307.7,471.3z" fill="#210070" style=""></path>
	<path d="M307.7,501l-3.8,3.3l-1.5,1.2l-0.1,0.1c-10.6,10-33.8,17-60.7,17c-26,0-48.6-6.5-59.6-16l-2.7-2.1l-4.5-3.5l0.1,12.8v2.5
		c1.6,15.5,30.9,27.9,66.8,27.9c36.6,0,66.4-12.9,66.9-28.8v-0.2l-0.1-2L307.7,501z" fill="#210070" style=""></path>
	<polygon points="346.2,451.1 346.3,451 346.2,451.1 	" fill="#210070" style=""></polygon>
</g>
<desc>Created with Snap</desc><defs></defs></g></g></g><g transform="matrix(1,0,0,1,2415.0667,0)"><path d="M165 0L85 0L85 516L165 516L165 432L169 432Q188 476 222 502Q257 528 315 528Q395 528 441 476Q488 425 488 331L488 0L408 0L408 317Q408 456 291 456Q267 456 244 450Q222 444 204 432Q186 420 175 401Q165 383 165 358L165 0Z" fill="#210070" style=""></path></g><g transform="matrix(1,0,0,1,2983.0667,0)"><path fill="#210070" style=""></path></g><g transform="matrix(1,0,0,1,3219.0667,0)"><path d="M177 0L93 0L93 698L509 698L509 624L177 624L177 390L480 390L480 316L177 316L177 0Z" fill="#210070" style=""></path></g><g transform="matrix(1,0,0,1,3778.0667,0)"><path d="M125 637Q99 637 87 649Q76 662 76 682L76 695Q76 715 87 727Q99 740 125 740Q151 740 162 727Q174 715 174 695L174 682Q174 662 162 649Q151 637 125 637ZM85 0L85 516L165 516L165 0L85 0Z" fill="#210070" style=""></path></g><g transform="matrix(1,0,0,1,4028.0667,0)"><path d="M165 0L85 0L85 516L165 516L165 432L169 432Q188 476 222 502Q257 528 315 528Q395 528 441 476Q488 425 488 331L488 0L408 0L408 317Q408 456 291 456Q267 456 244 450Q222 444 204 432Q186 420 175 401Q165 383 165 358L165 0Z" fill="#210070" style=""></path></g><g transform="matrix(1,0,0,1,4596.0667,0)"><path d="M637 0L637 588L632 588L573 471L406 167L239 471L180 588L175 588L175 0L93 0L93 698L205 698L405 322L410 322L611 698L719 698L719 0L637 0Z" fill="#210070" style=""></path></g><g transform="matrix(1,0,0,1,5408.0667,0)"><path d="M125 637Q99 637 87 649Q76 662 76 682L76 695Q76 715 87 727Q99 740 125 740Q151 740 162 727Q174 715 174 695L174 682Q174 662 162 649Q151 637 125 637ZM85 0L85 516L165 516L165 0L85 0Z" fill="#210070" style=""></path></g><g transform="matrix(1,0,0,1,5658.0667,0)"><path d="M165 0L85 0L85 516L165 516L165 432L169 432Q188 476 222 502Q257 528 315 528Q395 528 441 476Q488 425 488 331L488 0L408 0L408 317Q408 456 291 456Q267 456 244 450Q222 444 204 432Q186 420 175 401Q165 383 165 358L165 0Z" fill="#210070" style=""></path></g><g transform="matrix(1,0,0,1,6226.0667,0)"><path d="M415 0L415 84L411 84Q364 -12 260 -12Q212 -12 173 7Q134 26 106 61Q79 96 64 146Q50 196 50 258Q50 320 64 370Q79 420 106 455Q134 490 173 509Q212 528 260 528Q314 528 352 504Q391 481 411 432L415 432L415 740L495 740L495 0L415 0ZM282 60Q309 60 333 67Q358 74 376 87Q394 101 404 120Q415 140 415 165L415 357Q415 378 404 396Q394 415 376 428Q358 441 333 448Q309 456 282 456Q214 456 175 413Q136 371 136 302L136 214Q136 145 175 102Q214 60 282 60Z" fill="#210070" style=""></path></g></g></g><g transform="matrix(0.75,0,0,0.75,0,834.0507)"><g transform="matrix(1.024,0,0,-1.024,0,0)"><path d="M272 383L272 526Q272 544 266 549Q260 555 242 555L142 555L142 354L242 354Q260 354 266 359Q272 365 272 383ZM272 100L272 254Q272 272 266 277Q260 283 242 283L142 283L142 71L242 71Q260 71 266 76Q272 82 272 100ZM52 0L52 626L269 626Q363 626 363 538L363 379Q363 326 323 317Q363 307 363 259L363 88Q363 0 269 0L52 0ZM544 488L642 488Q736 488 736 399L736 216L539 216L539 100Q539 83 545 77Q551 71 569 71L615 71Q633 71 639 77Q645 83 645 101L645 141L733 141L733 88Q733 0 640 0L544 0Q451 0 451 88L451 399Q451 488 544 488ZM539 388L539 282L647 282L647 388Q647 405 641 411Q636 417 618 417L569 417Q551 417 545 411Q539 405 539 388ZM1089 399L1089 334L1000 334L1000 386Q1000 404 994 409Q988 415 970 415L927 415Q909 415 903 409Q897 404 897 386L897 102Q897 84 903 78Q909 73 927 73L970 73Q988 73 994 78Q1000 84 1000 102L1000 154L1089 154L1089 88Q1089 0 995 0L900 0Q807 0 807 88L807 399Q807 488 900 488L995 488Q1089 488 1089 399ZM1251 488L1358 488Q1451 488 1451 399L1451 88Q1451 0 1358 0L1251 0Q1159 0 1159 88L1159 399Q1159 488 1251 488ZM1362 101L1362 387Q1362 405 1356 411Q1350 417 1332 417L1277 417Q1259 417 1253 411Q1248 405 1248 387L1248 101Q1248 83 1253 77Q1259 71 1277 71L1332 71Q1350 71 1356 77Q1362 83 1362 101ZM1874 488L1909 488Q1999 488 1999 399L1999 0L1909 0L1909 386Q1909 404 1903 409Q1898 415 1880 415L1844 415Q1812 415 1812 380L1812 0L1722 0L1722 386Q1722 404 1716 409Q1710 415 1692 415L1657 415Q1639 415 1631 407Q1624 399 1624 380L1624 0L1534 0L1534 488L1624 488L1624 449Q1637 488 1686 488L1721 488Q1785 488 1804 443Q1816 488 1874 488ZM2173 488L2271 488Q2365 488 2365 399L2365 216L2168 216L2168 100Q2168 83 2174 77Q2180 71 2198 71L2244 71Q2262 71 2268 77Q2274 83 2274 101L2274 141L2362 141L2362 88Q2362 0 2269 0L2173 0Q2080 0 2080 88L2080 399Q2080 488 2173 488ZM2168 388L2168 282L2276 282L2276 388Q2276 405 2270 411Q2265 417 2247 417L2198 417Q2180 417 2174 411Q2168 405 2168 388ZM2769 449L2769 488L2859 488L2859 0L2769 0L2769 39Q2756 0 2707 0L2671 0Q2581 0 2581 88L2581 399Q2581 488 2671 488L2707 488Q2756 488 2769 449ZM2701 73L2736 73Q2754 73 2761 81Q2769 89 2769 108L2769 380Q2769 399 2761 407Q2754 415 2736 415L2701 415Q2683 415 2677 409Q2671 404 2671 386L2671 102Q2671 84 2677 78Q2683 73 2701 73ZM3265 669L3265 593L3223 593Q3205 593 3199 587Q3193 582 3193 564L3193 488L3265 488L3265 415L3193 415L3193 0L3103 0L3103 415L3054 415L3054 488L3103 488L3103 581Q3103 669 3196 669L3265 669ZM3406 581L3312 581L3312 670L3406 670L3406 581ZM3404 488L3404 0L3314 0L3314 488L3404 488ZM3644 488L3679 488Q3770 488 3770 399L3770 0L3680 0L3680 386Q3680 404 3674 409Q3668 415 3650 415L3615 415Q3597 415 3589 407Q3582 399 3582 380L3582 0L3492 0L3492 488L3582 488L3582 449Q3595 488 3644 488ZM4039 449L4039 488L4129 488L4129 0L4039 0L4039 39Q4026 0 3977 0L3941 0Q3851 0 3851 88L3851 399Q3851 488 3941 488L3977 488Q4026 488 4039 449ZM3971 73L4006 73Q4024 73 4031 81Q4039 89 4039 108L4039 380Q4039 399 4031 407Q4024 415 4006 415L3971 415Q3953 415 3947 409Q3941 404 3941 386L3941 102Q3941 84 3947 78Q3953 73 3971 73ZM4369 488L4404 488Q4495 488 4495 399L4495 0L4405 0L4405 386Q4405 404 4399 409Q4393 415 4375 415L4340 415Q4322 415 4314 407Q4307 399 4307 380L4307 0L4217 0L4217 488L4307 488L4307 449Q4320 488 4369 488ZM4858 399L4858 334L4769 334L4769 386Q4769 404 4763 409Q4757 415 4739 415L4696 415Q4678 415 4672 409Q4666 404 4666 386L4666 102Q4666 84 4672 78Q4678 73 4696 73L4739 73Q4757 73 4763 78Q4769 84 4769 102L4769 154L4858 154L4858 88Q4858 0 4764 0L4669 0Q4576 0 4576 88L4576 399Q4576 488 4669 488L4764 488Q4858 488 4858 399ZM5024 488L5122 488Q5216 488 5216 399L5216 216L5019 216L5019 100Q5019 83 5025 77Q5031 71 5049 71L5095 71Q5113 71 5119 77Q5125 83 5125 101L5125 141L5213 141L5213 88Q5213 0 5120 0L5024 0Q4931 0 4931 88L4931 399Q4931 488 5024 488ZM5019 388L5019 282L5127 282L5127 388Q5127 405 5121 411Q5116 417 5098 417L5049 417Q5031 417 5025 411Q5019 405 5019 388ZM5620 449L5620 488L5710 488L5710 -50Q5710 -138 5616 -138L5449 -138L5449 -67L5590 -67Q5608 -67 5614 -61Q5620 -55 5620 -38L5620 45Q5607 6 5558 6L5522 6Q5432 6 5432 95L5432 399Q5432 488 5522 488L5558 488Q5607 488 5620 449ZM5552 79L5587 79Q5605 79 5612 87Q5620 95 5620 114L5620 380Q5620 399 5612 407Q5605 415 5587 415L5552 415Q5534 415 5528 409Q5522 404 5522 386L5522 108Q5522 91 5528 85Q5534 79 5552 79ZM5889 488L5987 488Q6081 488 6081 399L6081 216L5884 216L5884 100Q5884 83 5890 77Q5896 71 5914 71L5960 71Q5978 71 5984 77Q5990 83 5990 101L5990 141L6078 141L6078 88Q6078 0 5985 0L5889 0Q5796 0 5796 88L5796 399Q5796 488 5889 488ZM5884 388L5884 282L5992 282L5992 388Q5992 405 5986 411Q5981 417 5963 417L5914 417Q5896 417 5890 411Q5884 405 5884 388ZM6249 488L6347 488Q6441 488 6441 399L6441 216L6244 216L6244 100Q6244 83 6250 77Q6256 71 6274 71L6320 71Q6338 71 6344 77Q6350 83 6350 101L6350 141L6438 141L6438 88Q6438 0 6345 0L6249 0Q6156 0 6156 88L6156 399Q6156 488 6249 488ZM6244 388L6244 282L6352 282L6352 388Q6352 405 6346 411Q6341 417 6323 417L6274 417Q6256 417 6250 411Q6244 405 6244 388ZM6732 488L6828 488L6716 255L6828 0L6732 0L6624 255L6732 488ZM6608 0L6518 0L6518 669L6608 669L6608 0Z" fill="#210070" style=""></path></g></g></g></svg>